<svg width="129" height="119" viewBox="0 0 129 119" fill="none" xmlns="http://www.w3.org/2000/svg">
<path d="M129 54.384C129 90.0063 100.122 118.884 64.5 118.884C28.8776 118.884 -1.52134e-06 90.0063 -1.52134e-06 54.384C-1.52134e-06 18.7616 28.8776 -10.116 64.5 -10.116C100.122 -10.116 129 18.7616 129 54.384Z" fill="#E2CD94"/>
<path d="M35.4514 36.1695L35.4771 36.2052L32.5119 38.3371L32.4862 38.3013C31.9858 36.927 31.6357 36.1762 30.5055 34.6043L23.8145 25.2979L23.4522 25.5855C22.8349 26.0835 23.1014 27.9241 23.3636 29.9846L23.2179 30.0081L21.2713 26.5845L27.8982 21.8199L30.5415 24.7426L30.455 24.8861C28.6031 23.9686 26.9254 23.1426 26.2745 23.5563L25.8687 23.821L32.5597 33.1274C33.677 34.6814 34.3079 35.2574 35.4514 36.1695Z" fill="black"/>
<path d="M46.9685 28.5865C47.8892 28.2225 48.2236 27.3332 48.3496 26.4553L48.4681 26.4558C48.767 28.3485 48.1961 30.1356 46.6413 30.7504C44.6363 31.5432 42.4861 29.8147 41.3374 26.9096C40.0835 23.7385 40.7895 20.857 42.6103 20.1371C44.4311 19.4171 46.4053 21.2388 47.1938 23.2928L42.9836 24.9102C44.3512 28.2493 45.7001 29.088 46.9685 28.5865ZM42.6536 20.5458C41.8557 20.8613 42.1018 22.6802 42.846 24.5624L44.9495 23.6597L44.723 23.0869C43.9059 21.0206 43.2674 20.3031 42.6536 20.5458Z" fill="black"/>
<path d="M56.1781 27.4971L56.1718 27.4535C56.2947 26.4577 56.3152 25.6768 56.0791 24.0437L55.5567 20.4293C55.3367 19.0607 54.987 18.3332 54.3792 17.6653L54.3729 17.6218L57.1768 16.1051L57.4569 18.0429L57.5253 18.0553C57.8381 17.1432 58.4989 16.0251 59.8271 15.8331C61.1336 15.6443 62.1865 16.4702 62.4415 18.2339L63.1338 23.0241C63.3667 24.6353 63.5671 25.4066 63.9886 26.3237L63.9949 26.3673L61.0119 26.7984L61.0056 26.7549C61.1284 25.7591 61.0991 24.9409 60.8725 23.3732L60.2147 18.8224C60.0857 17.9297 59.7116 17.4948 58.8842 17.6143C58.3181 17.6962 57.8302 18.0112 57.5977 18.5561L58.3467 23.7382C58.5733 25.3059 58.7769 26.099 59.1766 27.0192L59.1829 27.0628L56.1781 27.4971Z" fill="black"/>
<path d="M75.398 15.8294C75.792 15.869 76.1356 15.9699 76.4552 16.0905L76.7151 13.5076C76.8407 12.2599 76.6726 11.5133 76.2375 10.7841L76.2419 10.7403L79.3793 10.1053L78.0485 23.3265C77.8304 25.4935 78.0227 25.9993 78.4842 26.687L78.4798 26.7308L75.4038 27.1951L75.5977 25.2688C75.1024 26.2361 74.1736 27.1155 72.9259 26.9899C71.0872 26.8048 70.2808 24.7116 70.5848 21.6908C70.9307 18.2542 72.5524 15.5429 75.398 15.8294ZM73.0611 21.0335C72.746 24.1637 73.1086 25.3942 74.3345 25.5176C74.816 25.566 75.2409 25.2992 75.5651 24.9339L76.0961 19.6585C76.3516 17.1193 75.7305 16.2608 75.0519 16.1925C74.0012 16.0868 73.3894 17.772 73.0611 21.0335Z" fill="black"/>
<path d="M88.5416 28.5876C89.4766 28.9128 90.3105 28.4574 90.979 27.8746L91.0684 27.9523C90.0594 29.5813 88.4604 30.5625 86.8811 30.0133C84.8448 29.3051 84.3441 26.5922 85.3702 23.6415C86.4902 20.4207 88.9059 18.6986 90.7553 19.3417C92.6046 19.9848 92.9111 22.6536 92.1677 24.7243L87.9224 23.2014C86.7788 26.6236 87.2532 28.1396 88.5416 28.5876ZM90.5213 19.6796C89.7109 19.3978 88.71 20.9364 88.0452 22.8481L90.2279 23.5373L90.4303 22.9555C91.1601 20.8568 91.1447 19.8964 90.5213 19.6796Z" fill="black"/>
<path d="M96.0455 33.7252L96.0686 33.6878C96.8081 33.0322 97.2939 32.4529 98.1359 31.0853L100.085 27.9192C100.812 26.739 101.002 25.9261 100.963 25.0239L100.987 24.9864L104.111 25.6183L102.762 27.8102C103.834 27.4112 105.434 26.407 106.519 27.2042L105.109 29.4105L105.053 29.3759C104.834 29.0602 104.39 28.6061 103.94 28.3293C103.528 28.0756 103.045 28.0625 102.587 28.2195L100.073 32.3035C99.2653 33.6149 98.9063 34.324 98.6539 35.2795L98.6308 35.3169L96.0455 33.7252Z" fill="black"/>
<path d="M69.2654 66.0751C68.8841 66.0751 68.5431 65.9761 68.2424 65.7781C67.9417 65.5801 67.6851 65.2428 67.4724 64.7661L64.2164 57.3521C64.1357 57.1981 64.0331 56.9598 63.9084 56.6371C63.7837 56.3071 63.6591 55.9331 63.5344 55.5151C63.4097 55.0898 63.3034 54.6571 63.2154 54.2171C63.1347 53.7698 63.0944 53.3481 63.0944 52.9521C63.0944 52.4388 63.1677 52.0134 63.3144 51.6761C63.4684 51.3314 63.6627 51.0638 63.8974 50.8731C64.1394 50.6751 64.3961 50.5358 64.6674 50.4551C64.9387 50.3671 65.1954 50.3231 65.4374 50.3231C65.6647 50.3231 65.9031 50.3634 66.1524 50.4441C66.4091 50.5174 66.6474 50.6494 66.8674 50.8401C67.0947 51.0234 67.2781 51.2764 67.4174 51.5991C67.5567 51.9144 67.6264 52.3104 67.6264 52.7871C67.6264 53.3298 67.5421 53.8248 67.3734 54.2721C67.2047 54.7121 66.9994 55.1008 66.7574 55.4381C66.5227 55.7754 66.2954 56.0578 66.0754 56.2851C65.8554 56.5051 65.6904 56.6664 65.5804 56.7691L65.2284 56.1531C65.5217 55.8451 65.7821 55.4088 66.0094 54.8441C66.2367 54.2721 66.3504 53.5864 66.3504 52.7871C66.3504 52.1784 66.2734 51.7128 66.1194 51.3901C65.9727 51.0601 65.7381 50.8951 65.4154 50.8951C65.1001 50.8951 64.8691 51.0454 64.7224 51.3461C64.5757 51.6394 64.5024 52.0648 64.5024 52.6221C64.5024 52.9668 64.5464 53.3444 64.6344 53.7551C64.7297 54.1584 64.8361 54.5544 64.9534 54.9431C65.0781 55.3244 65.1917 55.6544 65.2944 55.9331C65.3971 56.2044 65.4631 56.3768 65.4924 56.4501L68.9794 64.2381C69.1554 64.6341 69.3021 64.8944 69.4194 65.0191C69.5367 65.1364 69.6687 65.1951 69.8154 65.1951C69.9401 65.1951 70.0647 65.1438 70.1894 65.0411C70.3141 64.9384 70.4131 64.8028 70.4864 64.6341L70.9264 65.0851C70.7797 65.3931 70.5524 65.6351 70.2444 65.8111C69.9437 65.9871 69.6174 66.0751 69.2654 66.0751ZM64.5904 66.1191C63.9597 66.1191 63.4171 65.9504 62.9624 65.6131C62.5077 65.2684 62.1631 64.8028 61.9284 64.2161C61.6937 63.6221 61.5764 62.9548 61.5764 62.2141C61.5764 61.3708 61.7121 60.6081 61.9834 59.9261C62.2621 59.2368 62.6067 58.6354 63.0174 58.1221C63.4354 57.6014 63.8607 57.1761 64.2934 56.8461L64.7004 57.4071C64.4511 57.6491 64.2054 57.9791 63.9634 58.3971C63.7287 58.8078 63.5307 59.2698 63.3694 59.7831C63.2154 60.2964 63.1384 60.8244 63.1384 61.3671C63.1384 62.0638 63.2044 62.7018 63.3364 63.2811C63.4757 63.8604 63.6921 64.3261 63.9854 64.6781C64.2787 65.0228 64.6564 65.1951 65.1184 65.1951C65.4191 65.1951 65.6904 65.0924 65.9324 64.8871C66.1744 64.6818 66.3871 64.4214 66.5704 64.1061C66.7537 63.7834 66.8967 63.4498 66.9994 63.1051L67.3844 63.7211C67.3037 64.0291 67.1571 64.3701 66.9444 64.7441C66.7391 65.1181 66.4457 65.4408 66.0644 65.7121C65.6904 65.9834 65.1991 66.1191 64.5904 66.1191ZM70.1344 62.8191C69.9217 62.8191 69.7677 62.7531 69.6724 62.6211C69.5771 62.4818 69.5294 62.3204 69.5294 62.1371C69.5294 61.9904 69.5551 61.8658 69.6064 61.7631C69.6651 61.6604 69.7201 61.5651 69.7714 61.4771C69.8227 61.3891 69.8484 61.2901 69.8484 61.1801C69.8484 61.0261 69.8191 60.9161 69.7604 60.8501C69.7091 60.7768 69.6137 60.7401 69.4744 60.7401C69.2984 60.7401 69.1187 60.8391 68.9354 61.0371C68.7594 61.2351 68.5981 61.4771 68.4514 61.7631C68.3121 62.0491 68.2057 62.3204 68.1324 62.5771L67.6044 62.0601C67.6851 61.8108 67.8171 61.5321 68.0004 61.2241C68.1837 60.9088 68.4001 60.6374 68.6494 60.4101C68.8987 60.1828 69.1774 60.0691 69.4854 60.0691C69.9474 60.0691 70.2774 60.2414 70.4754 60.5861C70.6807 60.9308 70.7834 61.3268 70.7834 61.7741C70.7834 62.0968 70.7284 62.3534 70.6184 62.5441C70.5084 62.7274 70.3471 62.8191 70.1344 62.8191Z" fill="black"/>
<path d="M31.7525 90.8638L28.1874 89.1399L28.2071 89.1005C29.1925 88.0132 29.7145 87.3615 30.589 85.6096L34.0084 78.7597C34.8927 76.9881 35.088 76.2029 35.3604 74.7707L35.38 74.7314C36.2119 75.1336 38.5686 76.2244 39.0241 76.4447C41.6682 77.6988 41.9911 79.7609 41.1067 81.5324C40.3108 83.1268 38.8902 84.1503 36.7237 83.8113C38.6961 85.3271 38.8799 87.1753 37.9661 89.0059C36.8656 91.2105 34.6442 92.2621 31.7525 90.8638ZM34.8515 82.7349L35.6041 83.0988C36.7925 83.6735 37.9162 82.5553 38.8791 80.6263C39.7929 78.7957 39.8872 77.3263 38.6096 76.684C38.3719 76.5691 38.1541 76.4638 37.9958 76.4361L34.8515 82.7349ZM31.7709 90.4329C33.1672 91.0836 34.5775 89.933 35.6977 87.689C36.7196 85.6419 36.8335 84.1331 35.4669 83.4723L34.6746 83.0892L31.1864 90.077C31.3252 90.1929 31.5333 90.318 31.7709 90.4329Z" fill="black"/>
<path d="M43.7644 96.5807C42.8446 96.2146 42.1871 95.2431 42.6742 93.8752C43.4419 91.7199 45.8902 91.4638 47.7623 91.7119L48.4487 89.7845C48.8104 88.769 48.6475 88.1126 47.6254 87.7059C46.9304 87.4293 46.0708 87.4184 45.3491 87.6754L45.3321 87.5267C46.3995 86.6264 47.9207 86.025 49.4537 86.6351C51.0072 87.2534 51.2832 88.641 50.7443 90.1539L48.6997 95.8947C48.5299 96.3713 48.5606 96.8095 48.9694 96.9722C49.1738 97.0535 49.3873 97.0438 49.6581 96.9387L49.6769 97.0171C49.2788 97.5449 48.4396 98.394 47.295 97.9385C46.4569 97.6049 46.1673 96.7798 46.3399 95.902C45.6989 96.5224 44.7456 96.9712 43.7644 96.5807ZM44.9483 93.7155C44.6235 94.6273 44.8421 95.2586 45.4757 95.5108C45.8232 95.6491 46.1463 95.6593 46.3893 95.5667L47.6368 92.0643C46.4336 92.035 45.3764 92.5134 44.9483 93.7155Z" fill="black"/>
<path d="M58.7058 102.142L58.7098 102.098C58.9691 101.43 59.1809 100.798 59.3188 99.2865L60.2763 88.7921C60.3902 87.5432 60.1958 86.7766 59.7804 86.0174L59.7844 85.9736L62.8646 85.5334L61.5753 99.6647C61.4414 101.133 61.551 101.863 61.704 102.6L61.7 102.644L58.7058 102.142ZM66.5168 103.452L63.8047 102.997L61.8823 97.0247L64.0235 94.8033C64.7287 94.0762 64.8877 93.0574 64.5077 92.3931L64.5117 92.3493L67.0503 92.7749L67.0463 92.8187C66.0614 93.2319 65.4036 93.9224 64.6727 94.6897L63.7443 95.6907L65.4446 100.958C65.826 102.09 66.0461 102.817 66.5208 103.408L66.5168 103.452Z" fill="black"/>
<path d="M73.6914 90.5623C72.9512 90.6699 72.1946 90.1603 72.016 89.4339C71.8374 88.7075 72.3 88.0207 73.0402 87.9131C73.7804 87.8055 74.5371 88.3151 74.7156 89.0415C74.8942 89.7679 74.4316 90.4547 73.6914 90.5623ZM75.3891 102.972L75.3786 102.93C75.3487 101.982 75.3121 101.191 74.9392 99.6744L74.0569 96.0852C73.7313 94.7607 73.2975 94.005 72.6235 93.3728L72.6025 93.2873L75.3443 91.7824L77.2086 99.3666C77.5763 100.862 77.8742 101.615 78.3395 102.499L78.35 102.542L75.3891 102.972Z" fill="black"/>
<path d="M84.7114 98.8356L84.6933 98.7955C84.5448 97.8293 84.3528 97.0856 83.6732 95.5821L82.169 92.2542C81.5772 90.9983 81.0307 90.3737 80.243 89.8533L80.2249 89.8132L82.6079 87.8576L83.4143 89.6418L83.486 89.6408C83.5496 88.7188 83.9044 87.5373 85.1765 87.1097C86.4277 86.6891 87.7022 87.2768 88.4362 88.9006L90.4297 93.311C91.1003 94.7945 91.5099 95.4882 92.1797 96.2791L92.1978 96.3192L89.3409 97.2795L89.3228 97.2394C89.1743 96.2732 88.9224 95.5034 88.27 94.06L86.3762 89.8702C86.0046 89.0482 85.5133 88.7053 84.7209 88.9717C84.1787 89.1539 83.7779 89.5427 83.6944 90.1019L85.851 94.8731C86.5034 96.3165 86.9221 97.0302 87.5711 97.8282L87.5892 97.8683L84.7114 98.8356Z" fill="black"/>
<path d="M97.5108 84.1221C97.096 84.3257 96.6446 84.4251 96.1566 84.4204C95.8236 84.8037 95.7023 85.1563 95.9166 85.5152C96.176 85.9496 96.6612 86.0778 97.959 85.5141L98.9888 85.0575C101.048 84.1443 102.549 84.2626 103.378 85.7363C104.343 87.4367 103.945 89.9769 101.259 91.2952C99.5602 92.1289 97.7773 92.0514 97.0215 90.7859C96.4349 89.8038 96.8413 88.7739 97.5636 88.1018C96.517 88.2736 95.7553 87.9391 95.2928 87.1647C94.5934 85.9937 95.234 84.971 95.8096 84.3953C94.5627 84.2746 93.2708 83.5654 92.5375 82.3377C91.432 80.4867 92.0361 78.3339 93.5765 77.5778C94.327 77.2095 95.2608 77.1908 96.1409 77.4671L97.1654 75.0347L97.2162 75.0342L98.3669 76.9607L98.3076 76.9898L96.4935 77.5871C97.3059 77.9211 98.0845 78.5404 98.5808 79.3715C99.6751 81.2036 99.0512 83.366 97.5108 84.1221ZM97.3077 83.7822C98.0582 83.4138 97.734 82.2296 96.6059 80.3408C95.4778 78.452 94.5498 77.5397 93.7796 77.9178C93.0291 78.2861 93.4041 79.4699 94.5322 81.3586C95.6603 83.2474 96.5375 84.1602 97.3077 83.7822ZM98.0937 89.8445C98.8946 91.1855 100.218 91.22 101.383 90.6481C103.062 89.8241 103.488 88.2715 102.876 87.2041C102.402 86.4108 101.666 86.5036 99.9617 87.2423L98.9009 87.6897C98.5144 87.855 98.1363 87.9917 97.795 88.0615C97.6679 88.4903 97.6537 89.1079 98.0937 89.8445Z" fill="black"/>
</svg>
